<?xml version="1.0" encoding="utf-8"?>
<!-- Generator: Adobe Illustrator 22.1.0, SVG Export Plug-In . SVG Version: 6.00 Build 0)  -->
<svg version="1.1" xmlns="http://www.w3.org/2000/svg" xmlns:xlink="http://www.w3.org/1999/xlink" x="0px" y="0px"
	 viewBox="0 0 686 487" style="enable-background:new 0 0 686 487;" xml:space="preserve">
<style type="text/css">
	.st0{display:none;}
	.st1{display:inline;}
	.st2{fill:#C44E84;}
	.st3{display:inline;fill:#EDEDED;}
	.st4{display:inline;fill:#EE7AAA;}
	.st5{fill:#C0627C;}
	.st6{fill:#FFFFFF;}
	.st7{fill:#3F401B;}
	.st8{display:inline;fill:#E26598;}
	.st9{display:inline;fill:#FFFFFF;}
	.st10{display:inline;fill-rule:evenodd;clip-rule:evenodd;fill:#D7DB2F;}
	.st11{fill:#A09D1B;}
	.st12{fill:#D7DB2F;}
	.st13{fill:#C7C61D;}
	.st14{fill:none;stroke:#A09D1B;stroke-width:23;stroke-linecap:round;stroke-linejoin:round;stroke-miterlimit:10;}
	.st15{display:inline;fill:#3F401B;}
	.st16{display:inline;fill:#A09D1B;}
	.st17{fill:#A09D1B;stroke:#A09D1B;stroke-width:5;stroke-miterlimit:10;}
	.st18{fill:none;stroke:#A09D1B;stroke-width:2;stroke-miterlimit:10;}
	.st19{display:inline;fill-rule:evenodd;clip-rule:evenodd;fill:#DC790F;}
	.st20{fill:#F9B03D;}
	.st21{fill:#C66F18;}
	.st22{fill:#F9B03D;stroke:#F9B03D;stroke-width:2.6377;stroke-miterlimit:10;}
	.st23{fill:#EB9B33;}
	.st24{fill:#E17B19;}
	.st25{display:none;fill:#57968D;}
	.st26{display:inline;fill:#57968D;}
	.st27{fill:#70BBB1;}
	.st28{fill:#91CFCD;}
	.st29{fill:#70BBB1;stroke:#70BBB1;stroke-width:5.3235;stroke-linecap:round;stroke-linejoin:round;stroke-miterlimit:10;}
	.st30{fill-rule:evenodd;clip-rule:evenodd;fill:#DC790F;}
	.st31{fill-rule:evenodd;clip-rule:evenodd;fill:#BE5C18;}
	.st32{fill-rule:evenodd;clip-rule:evenodd;fill:#F8F3DE;}
	.st33{fill-rule:evenodd;clip-rule:evenodd;fill:#F2DEAA;}
	.st34{fill-rule:evenodd;clip-rule:evenodd;fill:#E83889;}
	.st35{fill-rule:evenodd;clip-rule:evenodd;fill:#ED699A;}
	.st36{fill-rule:evenodd;clip-rule:evenodd;fill:#E13B6F;}
	.st37{fill-rule:evenodd;clip-rule:evenodd;fill:#FFFFFF;}
	.st38{fill-rule:evenodd;clip-rule:evenodd;fill:#6E6A69;}
	.st39{fill-rule:evenodd;clip-rule:evenodd;fill:#811621;}
	.st40{fill-rule:evenodd;clip-rule:evenodd;fill:#322F2E;}
	.st41{fill:#80BA2A;}
	.st42{display:inline;fill:#BA2457;}
	.st43{fill-rule:evenodd;clip-rule:evenodd;fill:#6A8F2E;}
	.st44{fill-rule:evenodd;clip-rule:evenodd;fill:#80BA2A;}
	.st45{fill-rule:evenodd;clip-rule:evenodd;fill:#5B2E14;}
	.st46{fill-rule:evenodd;clip-rule:evenodd;fill:#EDECED;}
	.st47{display:inline;fill:#D4DB44;}
	.st48{fill:#D4DB44;}
	.st49{opacity:0.5;fill:#D4DB44;}
	.st50{fill:#22A2DD;}
	.st51{fill:#57C2E2;}
	.st52{opacity:0.4;}
	.st53{fill-rule:evenodd;clip-rule:evenodd;fill:#4F6F5E;}
	.st54{fill-rule:evenodd;clip-rule:evenodd;fill:#60968A;}
	.st55{fill:#424042;}
	.st56{fill:#E61F4B;}
	.st57{fill:#5A595B;}
	.st58{fill:none;stroke:#E71D73;stroke-miterlimit:10;}
	.st59{fill:#E71D73;}
</style>
<g id="Livello_1" class="st0">
	<g class="st1">
		<path class="st2" d="M258.2,393.2c0,17.5,6.4,31.2,16.9,41l-8.8,31.2c-3.2,0.8-5,8.7-5,9.8c0,3,15,5.5,33.5,5.5
			c18.5,0,33.5-2.5,33.5-5.5c0-0.9-1.2-8.6-3.4-9.3l-3.7-13.8c2.4,0.2,4.9,0.3,7.4,0.3h31.9c2.3,0,4.5-0.1,6.8-0.2l-3.9,15.3
			c-2.2,0.7-3.4,7.4-3.4,8.3c0,3,15,5.5,33.5,5.5c18.5,0,33.5-2.5,33.5-5.5c0-1.1-1.8-8-5-8.8l-8.8-32c11-9.8,17.7-23.8,17.7-41.7"
			/>
	</g>
	<path class="st3" d="M254.5,83.3c0,0-22.9-2.1-24.6-26.8c-1.7-24.6-34.4,42,0,57.6"/>
	<path class="st3" d="M434.9,90c0,0,22.9-2.1,24.6-26.8c1.7-24.6,34.4,42,0,57.6"/>
	<path class="st4" d="M551,256.1C551,361.5,458.6,447,344.6,447c-114,0-206.4-85.5-206.4-190.9c0-105.4,92.4-190.9,206.4-190.9
		C458.6,65.2,551,150.7,551,256.1z"/>
	<g class="st1">
		<g>
			<g>
				<path class="st5" d="M256.4,305c19.9,0,39.7,0,59.6,0c31.5,0,63,0,94.5,0c7.3,0,14.6,0,22,0c1.9,0,1.9-3,0-3
					c-19.9,0-39.7,0-59.6,0c-31.5,0-63,0-94.5,0c-7.3,0-14.6,0-22,0C254.5,302,254.5,305,256.4,305L256.4,305z"/>
			</g>
		</g>
		<path class="st6" d="M290.1,301.4c-0.2-9.1-4.7-20.1-10.1-20c-5.4,0.1-9.5,11.3-9.4,20.4L290.1,301.4z"/>
		<path class="st6" d="M417,301.4c-0.2-9.1-4.7-20.1-10.1-20c-5.4,0.1-9.5,11.3-9.4,20.4L417,301.4z"/>
	</g>
	<g class="st1">
		<path class="st5" d="M310.4,73.9c-23.8-3.2-10.8-29.2,5.4-19.5c-15.1-22.7,19.5-42.1,27-6.5h3.2c7.6-35.7,42.1-16.2,27,6.5
			c16.2-9.7,29.2,16.2,5.4,19.5"/>
	</g>
	<g class="st1">
		<path class="st6" d="M413.5,169.6c0,38.1-30.9,68.9-68.9,68.9c-38.1,0-68.9-30.9-68.9-68.9c0-38.1,30.9-68.9,68.9-68.9
			C382.6,100.6,413.5,131.5,413.5,169.6z"/>
		<path class="st7" d="M389.6,169.6c0,24.9-20.1,45-45,45c-24.9,0-45-20.1-45-45c0-24.9,20.1-45,45-45
			C369.4,124.6,389.6,144.7,389.6,169.6z"/>
		<path class="st6" d="M366.1,160.2c0,11.9-9.7,21.6-21.6,21.6c-11.9,0-21.6-9.7-21.6-21.6c0-11.9,9.7-21.6,21.6-21.6
			C356.5,138.6,366.1,148.3,366.1,160.2z"/>
		<path class="st6" d="M332.4,191.6c0,4.4-3.6,8-8,8c-4.4,0-8-3.6-8-8c0-4.4,3.6-8,8-8C328.8,183.6,332.4,187.2,332.4,191.6z"/>
	</g>
	<path class="st8" d="M479.1,114.1c15.2,26.3,23.8,56.2,23.8,87.9c0,104-92.2,188.3-205.9,188.3c-50.2,0-96.3-16.5-132-43.8
		C199.5,406.3,268.1,447,347.1,447C460.8,447,553,362.7,553,258.7C553,200.6,524.2,148.7,479.1,114.1z"/>
	<path class="st4" d="M585.9,263.2c-7.7,8.6-19.6,19.5-32,20.7c-0.9-0.1-1.8-0.2-2.7-0.2h-64.9c-11.2,0-20.3,9.1-20.3,20.3v0
		c0,11.2,9.1,20.3,20.3,20.3h51.8c1.4,0.6,3,0.9,4.6,1c30.1,1.6,55.3-12.5,75-34.7C635.9,270.4,604,243,585.9,263.2z"/>
	<path class="st4" d="M109.8,246.3c6.2,9.7,16.2,22.4,28.3,25.6c0.9,0,1.8,0.1,2.7,0.2l64,10.6c11.1,1.8,18.6,12.3,16.7,23.4l0,0
		c-1.8,11.1-12.3,18.6-23.4,16.7l-51.1-8.4c-1.5,0.3-3.1,0.4-4.7,0.2c-30-3.3-52.5-21.4-68.4-46.4
		C59.4,245.3,95.3,223.4,109.8,246.3z"/>
</g>
<g id="Livello_4" class="st0">
	<g class="st1">
		<path class="st2" d="M258.2,393.2c0,17.5,6.4,31.2,16.9,41c0,0-1.2,4.4-2.8,9.9c-0.5,1.8-1.1,3.8-1.6,5.7C261,468,237,464,222,474
			c33,15,72,10,105-1c1.5-0.5,0.5-2.5-0.9-5.2C323,462,320,453,323,450c12-11,32-7,45,3c3,2-3,10-5.6,16.3c-1.2,2.9-1.9,5.2-0.4,5.7
			c29,11,70,14,97-2c-11.4-2.6-26.6-1.4-35.7-10c-1.3-1.2-2.5-2.7-3.5-4.3c-5.8-13.6-8.8-25.6,4-36.5c0.9-1.6,1.8-3.3,2.5-5
			c3.1-7,4.7-14.9,4.7-23.9"/>
	</g>
	<path class="st3" d="M254.5,83.3c0,0-22.9-2.1-24.6-26.8c-1.7-24.6-34.4,42,0,57.6"/>
	<path class="st3" d="M434.9,90c0,0,22.9-2.1,24.6-26.8c1.7-24.6,34.4,42,0,57.6"/>
	<path class="st4" d="M551,256.1C551,361.5,458.6,447,344.6,447c-114,0-206.4-85.5-206.4-190.9c0-105.4,92.4-190.9,206.4-190.9
		C458.6,65.2,551,150.7,551,256.1z"/>
	<g class="st1">
		<g>
			<path class="st5" d="M256.4,305c19.9,0,39.7,0,59.6,0c31.5,0,63,0,94.5,0c7.3,0,14.6,0,22,0c1.9,0,1.9-3,0-3
				c-19.9,0-39.7,0-59.6,0c-31.5,0-63,0-94.5,0c-7.3,0-14.6,0-22,0C254.5,302,254.5,305,256.4,305L256.4,305z"/>
		</g>
	</g>
	<path class="st9" d="M280,281.4c-1.6,0-3.1,1.1-4.4,2.7c1,0.3,2,0.9,2.4,1.8c0.3,0.5,0.5,1.1,0.7,1.6c0.1,0.3,0.3,0.6,0.5,0.9
		c0,0.1,0,0.1,0.1,0.1c0,0,0.1,0.1,0.1,0.1c1.4,1.5,1.6,4.2,0,5.7c-1.7,1.5-3.7,2.3-5.8,3c-0.9,0.3-1.9,0.2-2.7-0.2
		c-0.2,1.6-0.3,3.1-0.3,4.6l19.5-0.4C289.9,292.4,285.4,281.3,280,281.4z"/>
	<path class="st9" d="M315.5,301.4c-0.2-9.1-4.7-20.1-10.1-20c-5.4,0.1-9.5,11.3-9.4,20.4L315.5,301.4z"/>
	<path class="st9" d="M340.9,301.4c-0.2-9.1-4.7-20.1-10.1-20c-5.4,0.1-9.5,11.3-9.4,20.4L340.9,301.4z"/>
	<path class="st9" d="M366.2,301.4c-0.2-9.1-4.7-20.1-10.1-20c-5.4,0.1-9.5,11.3-9.4,20.4L366.2,301.4z"/>
	<path class="st9" d="M385,293.5c-1.8-1.5-3.2-3.5-3.6-5.9c-0.3-2.2,0.4-4.1,1.6-5.8c-0.5-0.2-1.1-0.3-1.6-0.3
		c-5.4,0.1-9.5,11.3-9.4,20.4l19.5-0.4c0-2.5-0.4-5.1-1.1-7.6C388.9,295.1,386.6,294.8,385,293.5z"/>
	<path class="st9" d="M417,301.4c-0.2-9.1-4.7-20.1-10.1-20c-5.4,0.1-9.5,11.3-9.4,20.4L417,301.4z"/>
	<g class="st1">
		<path class="st5" d="M318.2,76.4C312,74,305,76,301,69c19-5,40,1,58-7c-17,1-34-2-51-6c10,0,20,1,29-4c-1-1-3-2-4-2
			c-7,3-15,6-20,1s-9-16-2-22c7-5,20-12,28-5c-3,2-9,1-9,5c-1,2,3,3,5,3c23-5,54,1,60,27c0,3,1.9,15.5-2.7,14.7"/>
	</g>
	<g class="st1">
		<path class="st6" d="M464.9,154.6c0,33-26.7,59.7-59.7,59.7c-33,0-59.7-26.7-59.7-59.7c0-33,26.7-59.7,59.7-59.7
			C438.2,94.9,464.9,121.6,464.9,154.6z"/>
		<path class="st7" d="M444.2,154.6c0,21.5-17.5,39-39,39c-21.5,0-39-17.5-39-39c0-21.5,17.5-39,39-39
			C426.7,115.6,444.2,133.1,444.2,154.6z"/>
		<path class="st6" d="M423.9,166.5c0,10.3-8.4,18.7-18.7,18.7c-10.3,0-18.7-8.4-18.7-18.7c0-10.3,8.4-18.7,18.7-18.7
			C415.5,147.8,423.9,156.2,423.9,166.5z"/>
	</g>
	<g class="st1">
		<path class="st6" d="M344.9,154.6c0,33-26.7,59.7-59.7,59.7c-33,0-59.7-26.7-59.7-59.7c0-33,26.7-59.7,59.7-59.7
			C318.1,94.9,344.9,121.6,344.9,154.6z"/>
		<path class="st7" d="M324.1,154.6c0,21.5-17.5,39-39,39c-21.5,0-39-17.5-39-39c0-21.5,17.5-39,39-39
			C306.7,115.6,324.1,133.1,324.1,154.6z"/>
		<path class="st6" d="M303.8,166.5c0,10.3-8.4,18.7-18.7,18.7c-10.3,0-18.7-8.4-18.7-18.7c0-10.3,8.4-18.7,18.7-18.7
			C295.5,147.8,303.8,156.2,303.8,166.5z"/>
	</g>
	<path class="st8" d="M212.1,112.1c-15.2,26.3-23.8,56.2-23.8,87.9c0,104,92.2,188.3,205.9,188.3c50.2,0,96.3-16.5,132-43.8
		C491.6,404.3,423.1,445,344.1,445c-113.7,0-205.9-84.3-205.9-188.3C138.2,198.6,166.9,146.7,212.1,112.1z"/>
	<path class="st4" d="M617.8,316.8c-3.3,1-6.7-12.8-10.3-10.4c-3.6-3.2-7.3-6.2-11.2-8.8c-15.5-10.6-33.4-16.6-53.5-15.5
		c-1.6,0.1-3.2,0.5-4.6,1h-51.8c-5.6,0-10.7,2.3-14.4,5.9c-3.7,3.7-6,8.8-6,14.4c0,11.2,9.1,20.3,20.3,20.3h64.9
		c0.9,0,1.8-0.1,2.7-0.2c4.2-4.1,8.2,11.7,12.1,4c3.9,11.5,7.6-7.7,11,7.8c3.4,11.1,6.4-8.9,9,8.9c3.6,3.8,7.8,5.5,12,6.9
		c4.2,9.3,8.5,2.5,12.2-2c3.8,7.3,7.1,0.7,9.4-8.1c2.3,7.9,3.7-18.6,3.6-11.7C623.1,323.1,621.4,319.5,617.8,316.8z"/>
	<path class="st4" d="M109.8,361.2c2.1-12.1,4.5-3.6,7.4-10.3c2.8-6,6-7.7,9.5-9.4c3.5-0.9,7.3-7,11.3-5.9c0.9,0,1.8-0.1,2.7-0.2
		l64-10.6c11.1-1.8,18.6-12.3,16.7-23.4l0,0c-1.8-11.1-12.3-18.6-23.4-16.7l-51.1,8.4c-1.5-0.3-3.1-0.4-4.7-0.2
		c-10,1.1-19.2,3.8-27.5,7.9c-4.2,2-8.2,4.4-12,7.1c-3.8-3.5-7.4,10-10.8,8.9c-3.4-1.4-6.6,7-9.6,10.5c-3,11.2-5.8,7.6-8.5,11.9
		c-2.9-7.6-3.8,10.1-3.2,13.3c0.6,3.5,2.6,8.7,5.4,10.9c2.9,2.5,6.6-3.7,10.6,6.5c4,0.1,8.4-5.4,12.4-0.1
		C103.2,370.3,106.9,369.4,109.8,361.2z"/>
</g>
<g id="Livello_3" class="st0">
	<path class="st10" d="M474.3,316.9c0,0,9-4.8,22-11.8c1.5-0.8,3-1.6,4.5-2.3c3.2-0.7,5.2-2.7,8.2-2.7c28,7,37-14,52.9-30.1
		c1.5-0.8,3-1.6,4.4-2.4c13-7,22-11.8,22-11.8s6.3,3.9,13.5,8.4c1.5,0.9,3,1.8,4.5,2.8C618,278,629,290,646,278c12-9,15-25,27-34
		c-17,9-26,39-48,26c6,1,13,0,17-5c10-15,14-33,28-44c-10,3-19,10-27,17c-9,7-19,3-28,4c10-7,17-17,26-25c-10,1-19,6-29.3,6.9
		c-2.9,0.8-5.4,1.5-7.2,2c-1.8,0.5-2.9,0.8-2.9,0.8l-20,17.5c0,0-9.2,4.3-22.5,10.5c-1.5,0.7-3,1.4-4.5,2.1
		C535,269,514,279,492.1,285.8c-1.6,0.7-3.1,1.4-4.6,2.1c-13.3,6.2-22.5,10.5-22.5,10.5L474.3,316.9z"/>
	<path class="st10" d="M214.6,316.9c0,0-13.5-7.2-31.1-16.7c-1.6-0.8-3.3-1.7-5-2.5C170,294,160,296,150,295c-17-2-18-23-31.5-29.7
		c-2.6-1.5-5.1-2.8-7.2-4c-6.5-3.5-10.5-5.6-10.5-5.6s-16,10-26.7,16.6c-2.7,1.7-5,3.1-6.7,4.2C42,288,21,276,15,249
		c9,26,29,31,48,12c-30,16-36-17-44-39c8,5,12,16,22,18c11,3,22-4,33,1c-10-7-22-12-28-24c13,3,26,5,38.5,8.8
		c1.8,0.5,2.9,0.8,2.9,0.8l20,17.5c0,0,4.1,1.9,10.8,5c2.2,1,4.7,2.2,7.5,3.5C145,266,165,275,187,281.2c1.7,0.8,3.4,1.6,5,2.3
		c18.1,8.4,31.8,14.8,31.8,14.8L214.6,316.9z"/>
	<g class="st1">
		<path class="st11" d="M438,113.8c0.1-16.4-25.3-16.1-25.4,0.2c-0.1,7.6-1.3,18.4-7.8,23.6c-0.7,0.5-1.3,1.1-2,1.8
			c-0.7,0.5-1.4,1.1-2.1,1.8c-5.9,5.8-16.8,5.8-24.4,4.9c-1.2-0.1-2.3-0.1-3.3,0l-58.3,0.2c-1.3-0.1-2.5-0.1-3.9,0l-0.3,0l0,0
			c-0.3,0-0.6,0-0.9,0.1c-8.2,1.3-17-5.1-22.7-10.2c-0.5-0.5-1.1-0.9-1.6-1.2c-5.1-5.5-6.3-14.9-6.5-21.8
			c-0.4-16.4-25.8-16.2-25.4,0.2c0.4,14.5,4.5,28,13.7,38.5c0.6,1,1.4,2,2.4,2.9c10.2,9.2,22,15.4,35,16.5l0,0h0.2
			c2.5,0.2,5.1,0.2,7.7,0H373c17,2,33.4-1.4,46.1-12.9C432.4,147.1,437.9,131.1,438,113.8z"/>
		<g>
			<path class="st6" d="M265.8,81.4c0,3.2-2.5,5.8-5.7,5.8c-3.2,0-5.8-2.5-5.8-5.7c0-3.2,2.5-5.8,5.7-5.8
				C263.1,75.6,265.7,78.2,265.8,81.4z"/>
			<g>
				
					<ellipse transform="matrix(1 -9.537855e-03 9.537855e-03 1 -0.5709 2.5176)" class="st6" cx="263.7" cy="61.1" rx="50.1" ry="50.1"/>
				<path class="st11" d="M264.2,115.4c-29.9,0.3-54.5-23.8-54.8-53.8s23.8-54.5,53.8-54.8c29.9-0.3,54.5,23.8,54.8,53.8
					S294.1,115.1,264.2,115.4z M263.2,15.3c-25.3,0.2-45.6,21-45.4,46.3c0.2,25.3,21,45.6,46.3,45.4c25.3-0.2,45.6-21,45.4-46.3
					C309.3,35.4,288.5,15,263.2,15.3z"/>
			</g>
			<path class="st7" d="M302.9,65c0.2,18.1-14.3,32.8-32.4,33c-18.1,0.2-32.8-14.3-33-32.4c-0.2-18.1,14.3-32.8,32.4-33
				C287.9,32.5,302.7,47,302.9,65z"/>
			<path class="st6" d="M290.1,58.4c0.1,8.7-6.9,15.7-15.5,15.8c-8.7,0.1-15.7-6.9-15.8-15.5c-0.1-8.7,6.9-15.7,15.5-15.8
				S290,49.7,290.1,58.4z"/>
			<ellipse transform="matrix(1 -9.537565e-03 9.537565e-03 1 -0.7041 2.4413)" class="st6" cx="255.6" cy="75" rx="5.8" ry="5.8"/>
		</g>
		<path class="st6" d="M422.9,82c0,3.2,2.6,5.8,5.8,5.7c3.2,0,5.8-2.6,5.7-5.8c0-3.2-2.6-5.8-5.8-5.7
			C425.5,76.2,422.9,78.8,422.9,82z"/>
		<g>
			
				<ellipse transform="matrix(1 -9.537857e-03 9.537857e-03 1 -0.5691 4.053)" class="st6" cx="424.6" cy="61.7" rx="50.1" ry="50.1"/>
			<path class="st11" d="M370.3,62.2c-0.3-29.9,23.8-54.5,53.8-54.8c29.9-0.3,54.5,23.8,54.8,53.8s-23.8,54.5-53.8,54.8
				C395.2,116.3,370.6,92.2,370.3,62.2z M378.8,62.1c0.2,25.3,21,45.6,46.3,45.4c25.3-0.2,45.6-21,45.4-46.3
				c-0.2-25.3-21-45.6-46.3-45.4C398.9,16.1,378.6,36.9,378.8,62.1z"/>
		</g>
		<path class="st7" d="M385.5,66.4c0.2,18.1,15,32.6,33,32.4c18.1-0.2,32.6-15,32.4-33c-0.2-18.1-15-32.6-33-32.4
			C399.9,33.5,385.4,48.3,385.5,66.4z"/>
		<path class="st6" d="M398.2,59.4c0.1,8.7,7.2,15.6,15.8,15.5c8.7-0.1,15.6-7.2,15.5-15.8c-0.1-8.7-7.2-15.6-15.8-15.5
			C405,43.7,398.1,50.8,398.2,59.4z"/>
		<circle class="st6" cx="433" cy="75.5" r="5.8"/>
	</g>
	<g class="st1">
		<path class="st11" d="M257.8,390c0,17.5,6.4,31.2,16.9,41l-8.8,31.2c-3.2,0.8-5,8.7-5,9.8c0,3,15,5.5,33.5,5.5
			c18.5,0,33.5-2.5,33.5-5.5c0-0.9-1.2-8.6-3.4-9.3l-3.7-13.8c2.4,0.2,4.9,0.3,7.4,0.3h31.9c2.3,0,4.5-0.1,6.8-0.2l-3.9,15.3
			c-2.2,0.7-3.4,7.4-3.4,8.3c0,3,15,5.5,33.5,5.5c18.5,0,33.5-2.5,33.5-5.5c0-1.1-1.8-8-5-8.8l-8.8-32c11-9.8,17.7-23.8,17.7-41.7"
			/>
	</g>
	<g class="st1">
		<g>
			<path class="st12" d="M346.1,397.9c-5.8,56.9,71.6,53,67.9-2.2c11.2,20.4,28.8,42.4,54,35.8c31.5-9.8,13.9-31.7,13.7-55.4
				c36.4,13.9,68,13.6,42.3-30.4c-2.4-4.5-4.9-8.7-7.4-12.9c-1.3-2.1-2.5-4.1-3.8-6.2C506,317,501,306,495.1,296
				c-1-2.1-2-4.2-2.9-6.4c-2.8-6.5-5.1-13.4-6.8-20.9c-13.1-53.6-2.9-134.2-84.9-127.1l-116,1.1c-82.2-5.5-70.3,74.9-82.5,128.7
				c-6,30.1-23.2,50.7-37.2,77.7c-24.8,44.4,6.7,44.1,42.9,29.6c0.2,23.7-16.9,45.9,14.7,55.1c25.3,6.1,42.5-16.2,53.3-36.8
				c-2.6,55.3,74.8,57.7,67.9,0.9L346.1,397.9z"/>
		</g>
		<g>
			<path class="st13" d="M523.5,348.2c-3.6-6.7-7.4-13-11.2-19.1c-1.3-2-2.5-4.1-3.8-6.1s-2.5-4-3.7-6s-2.4-4-3.6-6.1
				c-7-12.2-13.1-24.7-16.4-39.7c-2.9-11.6-4.6-24.6-6.4-37.6C461,323,382.7,390.8,288.1,391.7c-46.3,0.4-89-15.3-122.8-41.8
				c-0.3,0.6-0.6,1.1-0.9,1.7c-24.8,44.4,6.7,44.1,42.9,29.6c0.2,23.7-16.9,45.9,14.7,55.1c25.3,6.1,42.5-16.2,53.3-36.8
				c-2.6,55.3,74.8,57.7,67.9,0.9l2.3,0c-5.8,56.9,71.6,53,67.9-2.2c11.2,20.4,28.8,42.4,54,35.8c31.5-9.8,13.9-31.7,13.7-55.4
				C517.6,392.4,549.2,392.1,523.5,348.2z"/>
		</g>
	</g>
	<g class="st1">
		<path class="st7" d="M408,293.4c0.4,38.1-28,64.1-63.2,64.5c-35.3,0.3-64.1-25.1-64.5-63.2L408,293.4z"/>
		<path class="st6" d="M303.1,294.4c0.1,11.7,6,26.5,13.1,26.4c7.1-0.1,12.7-14.9,12.6-26.7L303.1,294.4z"/>
		<path class="st6" d="M362.7,293.8c0.1,11.7,6,26.5,13.1,26.4c7.1-0.1,12.7-14.9,12.6-26.7L362.7,293.8z"/>
		<path class="st6" d="M332.9,294.1c0.1,11.7,6,26.5,13.1,26.4c7.1-0.1,12.7-14.9,12.6-26.7L332.9,294.1z"/>
	</g>
</g>
<g id="Livello_5" class="st0">
	<polyline class="st14" points="398,114 345.7,166.3 291.3,113.3 	"/>
	<g>
		<g class="st1">
			<path class="st6" d="M265.8,81.4c0,3.2-2.5,5.8-5.7,5.8c-3.2,0-5.8-2.5-5.8-5.7c0-3.2,2.5-5.8,5.7-5.8
				C263.1,75.6,265.7,78.2,265.8,81.4z"/>
			<g>
				<path class="st6" d="M300.7,27.4C291.4,17.2,278,10.9,263.2,11c-14.5,0.1-27.5,6.4-36.5,16.4H300.7z"/>
				<path class="st6" d="M220.8,35.3c-4.6,7.7-7.3,16.7-7.2,26.3c0.3,27.7,22.9,49.9,50.5,49.6c27.7-0.3,49.9-22.9,49.6-50.5
					c-0.1-9.3-2.7-18-7.2-25.4H220.8z"/>
				<path class="st11" d="M301.5,35.3c5,7.2,7.9,16,8,25.4c0.2,25.3-20.1,46-45.4,46.3c-25.3,0.2-46-20.1-46.3-45.4
					c-0.1-9.7,2.9-18.8,8-26.3h-9.9c-4.3,7.8-6.7,16.8-6.6,26.4c0.3,29.9,24.9,54.1,54.8,53.8c29.9-0.3,54.1-24.9,53.8-54.8
					c-0.1-9.2-2.5-17.8-6.6-25.3H301.5z"/>
			</g>
			<path class="st7" d="M282.9,35.3h-25.5c-11.8,5-20.1,16.8-19.9,30.4c0.2,18.1,15,32.6,33,32.4c18.1-0.2,32.6-15,32.4-33
				C302.7,51.6,294.5,40.2,282.9,35.3z"/>
			<path class="st6" d="M290.1,58.4c0.1,8.7-6.9,15.7-15.5,15.8c-8.7,0.1-15.7-6.9-15.8-15.5c-0.1-8.7,6.9-15.7,15.5-15.8
				S290,49.7,290.1,58.4z"/>
			<ellipse transform="matrix(1 -9.537565e-03 9.537565e-03 1 -0.7041 2.4413)" class="st6" cx="255.6" cy="75" rx="5.8" ry="5.8"/>
		</g>
		<path class="st9" d="M422.9,82c0,3.2,2.6,5.8,5.8,5.7c3.2,0,5.8-2.6,5.7-5.8c0-3.2-2.6-5.8-5.8-5.7
			C425.5,76.2,422.9,78.8,422.9,82z"/>
		<g class="st1">
			<path class="st6" d="M382.1,35.3c-4.9,7.8-7.7,17-7.6,26.9c0.3,27.7,22.9,49.9,50.5,49.6c27.7-0.3,49.9-22.9,49.6-50.5
				c-0.1-9.5-2.8-18.4-7.5-26H382.1z"/>
			<path class="st6" d="M461.1,27.4c-9.2-9.8-22.4-15.9-37-15.8c-14.2,0.1-27,6.2-36,15.8H461.1z"/>
			<path class="st11" d="M462.1,35.3c5.2,7.4,8.3,16.3,8.4,26c0.2,25.3-20.1,46-45.4,46.3c-25.3,0.2-46-20.1-46.3-45.4
				c-0.1-10,3-19.3,8.4-26.9h-10c-4.5,8-7,17.2-6.9,27c0.3,29.9,24.9,54.1,54.8,53.8c29.9-0.3,54.1-24.9,53.8-54.8
				c-0.1-9.4-2.6-18.2-6.9-25.9H462.1z"/>
		</g>
		<path class="st15" d="M429.2,35.3h-21.9c-12.8,4.5-21.9,16.8-21.7,31.1c0.2,18.1,15,32.6,33,32.4c18.1-0.2,32.6-15,32.4-33
			C450.8,51.7,441.7,39.7,429.2,35.3z"/>
		<path class="st9" d="M398.2,59.4c0.1,8.7,7.2,15.6,15.8,15.5c8.7-0.1,15.6-7.2,15.5-15.8c-0.1-8.7-7.2-15.6-15.8-15.5
			C405,43.7,398.1,50.8,398.2,59.4z"/>
		<circle class="st9" cx="433" cy="75.5" r="5.8"/>
	</g>
	<g>
		<path class="st16" d="M257.8,390c0,10.9,2.5,20.4,6.9,28.3c0.9,1.6,1.9,3.1,2.9,4.6C282,437,258,453,261,470c8-3,16-8,24-4
			c13,7,32,21,42,5c3-6-5-14-6-22c2,0,5,0,7.2,0.1c0,0,3.5,0,8.3,0c9.5,0,23.7,0,23.7,0c2.3,0,4.5-0.1,6.8-0.2l-3.9,15.3
			c-2.2,0.7-3.4,7.4-3.4,8.3c0,1.5,3.8,2.9,9.8,3.9c2,0.3,4.3,0.5,6.8,0.5C394,474,408,455,426,468c0-14-9-28-9-40
			c0-5,9-12,10.9-19.5c0.6-1.9,1.1-3.8,1.5-5.8c0.8-4,1.2-8.2,1.2-12.7L257.8,390z"/>
	</g>
	<g>
		<g class="st1">
			<path class="st12" d="M346.1,397.9c-5.8,56.9,71.6,53,67.9-2.2c11.2,20.4,28.8,42.4,54,35.8c31.5-9.8,13.9-31.7,13.7-55.4
				c36.4,13.9,68,13.6,42.3-30.4c-14.5-26.7-32-47.1-38.6-77c-13.1-53.6-2.9-134.2-84.9-127.1c0,0-7.2,0.1-18.1,0.2
				c-2.7,0-5.7,0-8.8-0.6c-20.6-18.2-41.6-14.2-62.2,1c-3.1,0.2-6.1,0.3-8.8,0.3c-10.9,0.1-18.1,0.2-18.1,0.2
				c-82.2-5.5-70.3,74.9-82.5,128.7c-6,30.1-23.2,50.7-37.2,77.7c-24.8,44.4,6.7,44.1,42.9,29.6c0.2,23.7-16.9,45.9,14.7,55.1
				c25.3,6.1,42.5-16.2,53.3-36.8c-2.6,55.3,74.8,57.7,67.9,0.9L346.1,397.9z"/>
		</g>
		<g class="st1">
			<path class="st13" d="M523.5,348.2c-14.5-26.7-32-47.1-38.6-77c-2.9-11.6-4.6-24.6-6.4-37.6C461,323,382.7,390.8,288.1,391.7
				c-46.3,0.4-89-15.3-122.8-41.8c-0.3,0.6-0.6,1.1-0.9,1.7c-24.8,44.4,26,75.5,57.6,84.7c25.3,6.1,128.1,20.9,121.2-35.9l2.3,0
				c-5.8,56.9,96.7,40.1,121.9,33.6C499,424.2,549.2,392.1,523.5,348.2z"/>
		</g>
	</g>
	<g>
		<path class="st15" d="M408,319.8c0.4-38.1-28-64.1-63.2-64.5c-35.3-0.3-64.1,25.1-64.5,63.2L408,319.8z"/>
		<path class="st9" d="M303.1,318.8c0.1-11.7,6-26.5,13.1-26.4c7.1,0.1,12.7,14.9,12.6,26.7L303.1,318.8z"/>
		<path class="st9" d="M362.7,319.4c0.1-11.7,6-26.5,13.1-26.4c7.1,0.1,12.7,14.9,12.6,26.7L362.7,319.4z"/>
		<path class="st9" d="M332.9,319.1c0.1-11.7,6-26.5,13.1-26.4c7.1,0.1,12.7,14.9,12.6,26.7L332.9,319.1z"/>
	</g>
	<line class="st17" x1="212" y1="34.7" x2="318.7" y2="34.7"/>
	<line class="st17" x1="371.3" y1="34.7" x2="478" y2="34.7"/>
	<line class="st18" x1="215.8" y1="34.3" x2="215.8" y2="14.3"/>
	<line class="st18" x1="224.8" y1="34.3" x2="224.8" y2="14.3"/>
	<line class="st18" x1="233.8" y1="34.3" x2="233.8" y2="14.3"/>
	<line class="st18" x1="242.8" y1="34.3" x2="242.8" y2="14.3"/>
	<line class="st18" x1="251.8" y1="34.3" x2="251.8" y2="14.3"/>
	<line class="st18" x1="260.8" y1="34.3" x2="260.8" y2="14.3"/>
	<line class="st18" x1="269.8" y1="34.3" x2="269.8" y2="14.3"/>
	<line class="st18" x1="278.8" y1="34.3" x2="278.8" y2="14.3"/>
	<line class="st18" x1="287.8" y1="34.3" x2="287.8" y2="14.3"/>
	<line class="st18" x1="296.8" y1="34.3" x2="296.8" y2="14.3"/>
	<line class="st18" x1="305.8" y1="34.3" x2="305.8" y2="14.3"/>
	<line class="st18" x1="314.8" y1="34.3" x2="314.8" y2="14.3"/>
	<line class="st18" x1="375.3" y1="34.3" x2="375.3" y2="14.3"/>
	<line class="st18" x1="384.3" y1="34.3" x2="384.3" y2="14.3"/>
	<line class="st18" x1="393.3" y1="34.3" x2="393.3" y2="14.3"/>
	<line class="st18" x1="402.3" y1="34.3" x2="402.3" y2="14.3"/>
	<line class="st18" x1="411.3" y1="34.3" x2="411.3" y2="14.3"/>
	<line class="st18" x1="420.3" y1="34.3" x2="420.3" y2="14.3"/>
	<line class="st18" x1="429.3" y1="34.3" x2="429.3" y2="14.3"/>
	<line class="st18" x1="438.3" y1="34.3" x2="438.3" y2="14.3"/>
	<line class="st18" x1="447.3" y1="34.3" x2="447.3" y2="14.3"/>
	<line class="st18" x1="456.3" y1="34.3" x2="456.3" y2="14.3"/>
	<line class="st18" x1="465.3" y1="34.3" x2="465.3" y2="14.3"/>
	<line class="st18" x1="474.3" y1="34.3" x2="474.3" y2="14.3"/>
	<path class="st12" d="M237,307.1c0,4.4-3.5,7.9-7.9,7.9h-98.8c-4.3,0-8.4,0-10,1.5c-2.1,1.9-4.8,2.8-7.5,2
		c-3.7-1.1-6.1-1.2-7.4,0.2c-2.3,2.5-6,2.8-9.1,1.5c-2.4-1-2.5,4.4-1.6,16.6c-1-13.2-1.4-20.7,5.1-22.6c5.6-1.7,7.2-8.8,3.2-13.1
		c-9.8-10.4-9.4-18.2-8.1-33.9c-1.1,13-1,18.6,1.7,17.4c3.1-1.4,6.7-0.6,9.2,1.8c1.2,1.2,3.5,1.2,6.9,0.3c2.7-0.8,5.8-0.2,7.8,1.8
		c1.5,1.5,5.6,1.5,9.9,1.5h98.8c4.4,0,7.9,3.5,7.9,7.9V307.1z"/>
	<path class="st12" d="M461.8,314.7c1.6,4.1,6.2,6.1,10.2,4.5l92-35.9c4-1.6,7.8-3.1,9.9-2.3c2.6,1,5.5,0.9,7.7-0.9
		c3-2.4,5.3-3.4,7-2.5c3.1,1.5,6.6,0.5,9.1-1.9c1.9-1.8,4,3.1,7.5,14.9c-3.8-12.6-6.2-19.8-12.9-19.2c-5.8,0.5-9.9-5.6-7.7-11
		c5.3-13.2,2.1-20.4-4.8-34.5c5.7,11.7,7.7,17,4.7,16.8c-3.4-0.2-6.5,1.9-7.9,5c-0.7,1.6-2.8,2.4-6.3,2.8c-2.8,0.3-5.5,1.9-6.6,4.5
		c-0.8,1.9-4.6,3.4-8.7,5l-92,35.9c-4.1,1.6-6.1,6.2-4.5,10.2L461.8,314.7z"/>
	<g>
		<circle class="st1" cx="330.5" cy="221" r="6"/>
		<circle class="st1" cx="356.5" cy="221" r="6"/>
	</g>
</g>
<g id="Livello_7" class="st0">
	<polygon class="st19" points="474.3,316.9 588.3,255.7 624.3,278.1 672.6,243.6 625.4,260.3 669.6,220.8 614.6,240.6 640.5,215.8 
		601.6,226.6 581.6,244.1 465.1,298.4 	"/>
	<polygon class="st19" points="214.6,316.9 100.7,255.7 64.7,278.1 16.4,243.6 63.6,260.3 19.4,220.8 74.4,240.6 48.5,215.8 
		87.4,226.6 107.4,244.1 223.9,298.4 	"/>
	<g class="st1">
		<path class="st20" d="M310.4,73.9c-23.8-3.2-10.8-29.2,5.4-19.5c-15.1-22.7,19.5-42.1,27-6.5h3.2c7.6-35.7,42.1-16.2,27,6.5
			c16.2-9.7,29.2,16.2,5.4,19.5"/>
	</g>
	<g class="st1">
		<path class="st21" d="M258.2,393.2c0,17.5,6.4,31.2,16.9,41l-8.8,31.2c-3.2,0.8-5,8.7-5,9.8c0,3,15,5.5,33.5,5.5
			c18.5,0,33.5-2.5,33.5-5.5c0-0.9-1.2-8.6-3.4-9.3l-3.7-13.8c2.4,0.2,4.9,0.3,7.4,0.3h31.9c2.3,0,4.5-0.1,6.8-0.2l-3.9,15.3
			c-2.2,0.7-3.4,7.4-3.4,8.3c0,3,15,5.5,33.5,5.5c18.5,0,33.5-2.5,33.5-5.5c0-1.1-1.8-8-5-8.8l-8.8-32c11-9.8,17.7-23.8,17.7-41.7"
			/>
	</g>
	<g class="st1">
		<path class="st22" d="M420.2,65.6c0,0,36.8-3.4,39.6-43c2.8-39.6,55.2,67.5,0,92.5"/>
		<path class="st23" d="M463.1,23.2c8.6,24.6,11.4,62.5-16.5,77.5l15.8,19.8C514.9,96.6,470-1.5,463.1,23.2z"/>
	</g>
	<g class="st1">
		<path class="st22" d="M266.9,65.6c0,0-36.8-3.4-39.6-43c-2.8-39.6-55.2,67.5,0,92.5"/>
		<path class="st23" d="M223.9,17.9c-8.6,24.6-11.4,62.5,16.5,77.5l-15.8,19.8C172.1,91.3,217.1-6.7,223.9,17.9z"/>
	</g>
	<g class="st1">
		<path class="st22" d="M492.2,139.1c-47.9-89-136.9-90.2-136.9-90.2h-28.4c0,0-89,1.2-136.9,90.2c-54.7,118.8,3,214.4,44.8,262.9
			c-5.4,5.2-8.8,12.4-8.8,20.6c0,15.9,12.9,28.8,28.7,28.8c10.8,0,20.2-6.8,25.1-14.7h7.3c4.9,7.9,14.3,14.7,25.1,14.7
			c10.8,0,20.2-6.8,25.1-14.7h7.3c4.9,7.9,14.3,14.7,25.1,14.7c10.8,0,20.2-6.8,25.1-14.7h7.3c4.9,7.9,14.3,14.6,25.1,14.6
			c15.9,0,28.7-12.9,28.7-28.8c0-7.4-2.8-14-7.4-19.1C489.2,355.7,546.6,260.3,492.2,139.1z"/>
		<path class="st23" d="M514.7,211.4C499.3,316.4,408.8,397,299.5,397c-29.2,0-57.1-5.8-82.6-16.3c6.9,9.9,13.9,18.8,20.5,26.5
			c-5.4,5.2-8.8,12.4-8.8,20.6c0,15.9,12.9,29.5,28.7,29.5c10.8,0,20.2-6.1,25.1-14h7.3c4.9,7.9,14.3,14.7,25.1,14.7
			c10.8,0,20.2-6.8,25.1-14.7h7.3c4.9,7.9,14.3,14.7,25.1,14.7c10.8,0,20.2-6.8,25.1-14.7h7.3c4.9,7.9,14.3,14,25.1,14
			c15.9,0,28.7-13.3,28.7-29.1c0-7.4-2.8-14.2-7.4-19.2C484,370.3,527.7,300.5,514.7,211.4z"/>
	</g>
	<g class="st1">
		<g>
			<path class="st24" d="M314,255.8c22.6,0,45.1,0,67.7,0c5.1,0,5.1-7.9,0-7.9c-22.6,0-45.1,0-67.7,0
				C308.9,247.9,308.9,255.8,314,255.8L314,255.8z"/>
		</g>
	</g>
	<path class="st9" d="M322.3,252.5c0,10.6,5.1,23.5,11.4,23.5c6.3,0,11.4-12.9,11.4-23.5H322.3z"/>
	<g class="st1">
		
			<ellipse transform="matrix(0.2275 -0.9738 0.9738 0.2275 64.7741 397.8629)" class="st6" cx="283.1" cy="158.1" rx="61.3" ry="61.3"/>
		<path class="st7" d="M288.4,203.4c-22.1,0-40-17.9-40-40c0-22.1,17.9-40,40-40c22.1,0,40,17.9,40,40
			C328.5,185.5,310.5,203.4,288.4,203.4z"/>
		<path class="st6" d="M296.8,187.8c-10.6,0-19.2-8.6-19.2-19.2c0-10.6,8.6-19.2,19.2-19.2c10.6,0,19.2,8.6,19.2,19.2
			C315.9,179.3,307.4,187.8,296.8,187.8z"/>
		<circle class="st6" cx="274.1" cy="148.1" r="7.1"/>
	</g>
	<g class="st1">
		
			<ellipse transform="matrix(0.9738 -0.2275 0.2275 0.9738 -25.3272 96.463)" class="st6" cx="405.8" cy="158.1" rx="61.3" ry="61.3"/>
		<path class="st7" d="M451.1,163.4c0-22.1-17.9-40-40-40c-22.1,0-40,17.9-40,40s17.9,40,40,40C433.2,203.4,451.1,185.5,451.1,163.4
			z"/>
		<path class="st6" d="M435.6,171.7c0-10.6-8.6-19.2-19.2-19.2s-19.2,8.6-19.2,19.2c0,10.6,8.6,19.2,19.2,19.2
			S435.6,182.3,435.6,171.7z"/>
		<circle class="st6" cx="395.8" cy="149.1" r="7.1"/>
	</g>
</g>
<g id="Livello_8">
	<path class="st25" d="M592.5,289.5v-4h14.1c0-1.6,0.1-3.3,0.1-5h-14.1v-4h14.2c0-1.7,0-3.4-0.1-5h-14.1v-4h14
		c-0.1-1.7-0.1-3.4-0.2-5h-13.8v-4H606c-0.2-2.5-0.5-4.6-0.8-6.2c-2.2-10.9-52.5-7.3-45.4,20.3c6.5,25.3,17.3,27.9,19.1,28.1
		c-5.6-0.6-102.1-11.6-116.6-4.4c0,0,1.6,18.5,6.9,20.8c5.2,2.3,72.2-3.8,87.5-4.5c15.3-0.6,44.3-0.2,47.4-6.2
		c1.2-2.3,1.9-8.9,2.3-17H592.5z"/>
	<path class="st25" d="M95.1,289.5v-4H81c0-1.6-0.1-3.3-0.1-5h14.1v-4H80.9c0-1.7,0-3.4,0.1-5h14.1v-4h-14c0.1-1.7,0.1-3.4,0.2-5
		h13.8v-4H81.6c0.2-2.5,0.5-4.6,0.8-6.2c2.2-10.9,52.5-7.3,45.4,20.3c-6.5,25.3-17.3,27.9-19.1,28.1c5.6-0.6,102.1-11.6,116.6-4.4
		c0,0-1.6,18.5-6.9,20.8c-5.2,2.3-72.2-3.8-87.5-4.5c-15.3-0.6-44.3-0.2-47.4-6.2c-1.2-2.3-1.9-8.9-2.3-17H95.1z"/>
	<g class="st0">
		<path class="st26" d="M301.8,390.3c0,0,18,1.4,20.3,4.6c2.3,3.2-2.9,43.5-3.4,52.7c-0.4,9.2,0.3,26.7-5.5,28.5
			c-5.8,1.8-41.9,1-52.5-0.5c-10.6-1.5-7.7-31.8,19.1-26.9c26.9,4.9,27.6,12.3,27.6,12.3S294.8,399.2,301.8,390.3z"/>
		<path class="st26" d="M380.6,391.7c0,0-17.9,0.7-20.1,3.8c-2.1,3.1,5.5,43.6,6.4,52.9c1,9.2,1.2,26.7,7.2,28.7
			c5.9,2,42,2.6,52.6,1.4c10.5-1.2,5.9-31.6-20.7-27.7c-26.6,3.9-26.9,11.3-26.9,11.3S388.1,400.9,380.6,391.7z"/>
	</g>
	<g>
		<g>
			<path class="st27" d="M422.3,112.9c0,0,48.1-31.1,30-55.8c-18.2-24.7,2.5-58.4,41.5-48.5c39,9.9,38,83.9-47.9,119.8"/>
		</g>
		<path class="st28" d="M438.9,119.1c0,0,68.7-34.4,53.9-83c-11.9-13-19.1-2.2-20.4,17.2C471.1,72.6,478.2,80,438.9,119.1z"/>
	</g>
	<g>
		<g>
			<path class="st27" d="M257.7,109.5c0,0-48.6-29.7-30.9-54c17.8-24.2-3.5-56.8-42.3-46.7c-38.8,10.1-36.7,82,49.8,116"/>
		</g>
		<path class="st28" d="M241.2,115.8c0,0-69.2-32.7-55.2-80.1c11.6-12.8,19.1-2.3,20.6,16.5C208.2,70.9,201.3,78.2,241.2,115.8z"/>
	</g>
	<g>
		<g>
			<path class="st28" d="M550.2,262.3c0,0,0-0.1,0-0.1c0,0,0-0.1,0-0.1c0-13.1-9.4-24-21.9-26.3c1-0.5,1.9-1.1,2.9-1.7
				c12.2-8.4,15.2-25.1,6.8-37.3c-6.8-9.8-18.9-13.6-29.7-10.4c9.5-8.9,11.4-23.7,3.7-34.8c-7.7-11-22.1-14.5-33.8-8.8
				c-0.6-0.7-1.3-1.4-2-2.1c6.4-11.7,3.1-26.7-8-34.6c-10.7-7.6-25.1-6.2-34.2,2.6c-0.8-0.4-1.7-0.9-2.5-1.3
				c2.4-12.7-4.5-25.6-17-30.2c-13-4.8-27.3,1.1-33.3,13.2c-1.1-0.2-2.3-0.4-3.4-0.6c-1.5-13.4-12.8-23.8-26.6-23.8
				c-13.8,0-25.1,10.4-26.6,23.8c-1.2,0.2-2.4,0.4-3.6,0.6c-6-12.1-20.3-17.9-33.3-13.1c-12.5,4.6-19.4,17.5-17,30.1
				c-0.8,0.4-1.7,0.9-2.5,1.3c-9.1-8.8-23.4-10.1-34.1-2.5c-11.1,7.9-14.4,22.8-8.1,34.5c-0.7,0.7-1.3,1.4-2,2.1
				c-11.7-5.7-26.1-2.2-33.7,8.8c-7.7,11.1-5.8,25.9,3.7,34.8c-10.8-3.2-22.9,0.6-29.7,10.4c-8.4,12.2-5.4,28.9,6.8,37.3
				c0.9,0.6,1.9,1.2,2.9,1.7c-12.4,2.3-21.9,13.2-21.9,26.3c0,0,0,0.1,0,0.1c0,0,0,0.1,0,0.1c0,13.1,9.4,24,21.9,26.3
				c-1,0.5-1.9,1.1-2.9,1.7c-12.2,8.4-15.2,25.1-6.8,37.3c6.8,9.8,18.9,13.6,29.7,10.4c-9.5,8.9-11.4,23.7-3.7,34.8
				c7.7,11.1,22.2,14.5,33.9,8.7c0.6,0.7,1.3,1.3,1.9,2c-6.4,11.8-3.2,26.7,8,34.7c10.8,7.6,25.2,6.2,34.3-2.7
				c0.8,0.4,1.6,0.8,2.4,1.3c-2.6,12.7,4.4,25.7,17,30.4c13,4.8,27.4-1.1,33.4-13.4c1.1,0.2,2.2,0.4,3.3,0.5
				c1.4,13.5,12.8,24.1,26.7,24.1c13.9,0,25.3-10.6,26.7-24.1c1.1-0.2,2.3-0.4,3.4-0.6c6,12.3,20.4,18.2,33.4,13.4
				c12.6-4.7,19.5-17.7,17-30.4c0.8-0.4,1.6-0.8,2.4-1.2c9.1,9,23.6,10.4,34.3,2.8c11.2-8,14.5-23,8-34.8c0.6-0.7,1.3-1.3,1.9-2
				c11.7,5.9,26.3,2.4,34-8.7c7.7-11.1,5.8-25.9-3.7-34.8c10.8,3.2,22.9-0.6,29.7-10.4c8.4-12.2,5.4-28.9-6.8-37.3
				c-0.9-0.6-1.9-1.2-2.9-1.7C540.7,286.3,550.2,275.4,550.2,262.3z"/>
		</g>
		<g>
			<g>
				<path class="st27" d="M550.4,263.7c0,0,0-0.1,0-0.1c0,0,0-0.1,0-0.1c0-12.7-8.9-23.4-20.8-26.1c-2.7,1.7-5.8,2.9-9,3.5
					c1,0.5,1.9,1.1,2.9,1.7c12.2,8.4,15.2,25.1,6.8,37.3c-6.8,9.8-18.9,13.6-29.7,10.4c9.5,8.9,11.4,23.7,3.7,34.8
					c-7.7,11.1-22.3,14.6-34,8.7c-0.6,0.7-1.3,1.3-1.9,2c6.5,11.8,3.3,26.8-8,34.8c-10.8,7.7-25.2,6.2-34.3-2.8
					c-0.8,0.4-1.6,0.8-2.4,1.2c2.6,12.7-4.4,25.8-17,30.4c-13.1,4.8-27.5-1.1-33.4-13.4c-1.1,0.2-2.3,0.4-3.4,0.6
					c-1.4,13.5-12.8,24.1-26.7,24.1c-13.9,0-25.3-10.6-26.7-24.1c-1.1-0.2-2.2-0.4-3.3-0.5c-6,12.3-20.4,18.2-33.4,13.4
					c-12.5-4.6-19.5-17.7-17-30.4c-0.8-0.4-1.6-0.8-2.4-1.3c-9.1,8.9-23.5,10.4-34.3,2.7c-11.2-8-14.4-22.9-8-34.7
					c-0.7-0.7-1.3-1.3-1.9-2c-11.7,5.8-26.2,2.3-33.9-8.7c-7.7-11.1-5.8-25.9,3.7-34.8c-4.3,1.3-8.9,1.4-13.2,0.5
					c-0.6,0.3-1.1,0.6-1.7,1c-12.2,8.4-15.2,25.1-6.8,37.3c6.8,9.8,18.9,13.6,29.7,10.4c-9.5,8.9-11.4,23.7-3.7,34.8
					c7.7,11.1,22.2,14.5,33.9,8.7c0.6,0.7,1.3,1.3,1.9,2c-6.4,11.8-3.2,26.7,8,34.7c10.8,7.6,25.2,6.2,34.3-2.7
					c0.8,0.4,1.6,0.8,2.4,1.3c-2.6,12.7,4.4,25.7,17,30.4c13,4.8,27.4-1.1,33.4-13.4c1.1,0.2,2.2,0.4,3.3,0.5
					c1.4,13.5,12.8,24.1,26.7,24.1c13.9,0,25.3-10.6,26.7-24.1c1.1-0.2,2.3-0.4,3.4-0.6c6,12.3,20.4,18.2,33.4,13.4
					c12.6-4.7,19.5-17.7,17-30.4c0.8-0.4,1.6-0.8,2.4-1.2c9.1,9,23.6,10.4,34.3,2.8c11.2-8,14.5-23,8-34.8c0.6-0.7,1.3-1.3,1.9-2
					c11.7,5.9,26.3,2.4,34-8.7c7.7-11.1,5.8-25.9-3.7-34.8c10.8,3.2,22.9-0.6,29.7-10.4c8.4-12.2,5.4-28.9-6.8-37.3
					c-0.9-0.6-1.9-1.2-2.9-1.7C540.9,287.7,550.4,276.8,550.4,263.7z"/>
			</g>
		</g>
	</g>
	<g class="st0">
		
			<ellipse transform="matrix(0.9357 -0.3529 0.3529 0.9357 -36.5332 101.8875)" class="st9" cx="261.2" cy="151.1" rx="41.4" ry="41.4"/>
		<path class="st15" d="M293.6,154.7c0,14.9-12.1,27.1-27.1,27.1c-14.9,0-27.1-12.1-27.1-27.1c0-14.9,12.1-27.1,27.1-27.1
			C281.5,127.6,293.6,139.8,293.6,154.7z"/>
		<path class="st9" d="M283,149.1c0,7.2-5.8,13-13,13s-13-5.8-13-13c0-7.2,5.8-13,13-13S283,141.9,283,149.1z"/>
		<path class="st9" d="M262.7,168c0,2.6-2.1,4.8-4.8,4.8c-2.6,0-4.8-2.1-4.8-4.8c0-2.6,2.1-4.8,4.8-4.8
			C260.6,163.2,262.7,165.3,262.7,168z"/>
	</g>
	<g class="st0">
		
			<ellipse transform="matrix(0.3529 -0.9357 0.9357 0.3529 133.9769 495.991)" class="st9" cx="425.6" cy="151.1" rx="41.4" ry="41.4"/>
		<path class="st15" d="M393.2,154.7c0,14.9,12.1,27.1,27.1,27.1c14.9,0,27.1-12.1,27.1-27.1c0-14.9-12.1-27.1-27.1-27.1
			C405.3,127.6,393.2,139.8,393.2,154.7z"/>
		<path class="st9" d="M403.7,149.1c0,7.2,5.8,13,13,13c7.2,0,13-5.8,13-13c0-7.2-5.8-13-13-13C409.5,136.1,403.7,141.9,403.7,149.1
			z"/>
		<path class="st9" d="M424,168c0,2.6,2.1,4.8,4.8,4.8c2.6,0,4.8-2.1,4.8-4.8c0-2.6-2.1-4.8-4.8-4.8C426.1,163.2,424,165.3,424,168z
			"/>
	</g>
	<g class="st0">
		
			<ellipse transform="matrix(0.9357 -0.3529 0.3529 0.9357 -46.7716 133.7313)" class="st9" cx="343.4" cy="195.1" rx="41.4" ry="41.4"/>
		<path class="st15" d="M375.8,198.7c0,14.9-12.1,27.1-27.1,27.1c-14.9,0-27.1-12.1-27.1-27.1c0-14.9,12.1-27.1,27.1-27.1
			C363.7,171.6,375.8,183.8,375.8,198.7z"/>
		<path class="st9" d="M365.3,193.1c0,7.2-5.8,13-13,13c-7.2,0-13-5.8-13-13c0-7.2,5.8-13,13-13
			C359.4,180.1,365.3,185.9,365.3,193.1z"/>
		<path class="st9" d="M345,212c0,2.6-2.1,4.8-4.8,4.8c-2.6,0-4.8-2.1-4.8-4.8c0-2.6,2.1-4.8,4.8-4.8C342.8,207.2,345,209.3,345,212
			z"/>
	</g>
	<g class="st0">
		<path class="st9" d="M313,301.6c0,10.6,5.1,23.7,11.5,23.7c6.3,0,11.5-13.1,11.5-23.7H313z"/>
		<path class="st9" d="M350.3,301.6c0,10.6,5.1,23.7,11.5,23.7c6.3,0,11.5-13.1,11.5-23.7H350.3z"/>
		<g class="st1">
			<g>
				<path class="st29" d="M324.5,289.3c-0.9,2.8-1.5,4.5-2.9,7.4c-0.7,1.6-3.7,6.1-8,8.3c-4.3,2.3-8.8,2.3-8.7,2.2
					c0-0.1-4.5,0.2-8.7-2.3c-4.4-2.2-7.2-6.8-7.9-8.4c-1.3-3-1.9-4.6-2.8-7.4c-0.4,2.8-0.5,5,0.9,8.3c0.8,1.7,3.9,6.9,8.8,9.3
					c4.7,2.7,9.8,2.5,9.7,2.5c-0.1,0.1,5,0.1,9.7-2.4c4.9-2.4,8.2-7.4,8.9-9.2C325,294.4,324.9,292.2,324.5,289.3z"/>
			</g>
		</g>
		<g class="st1">
			<g>
				<path class="st29" d="M362.9,288.1c-0.8,2.8-1.3,4.5-2.5,7.5c-0.6,1.6-3.3,6.3-7.5,8.7c-4.1,2.5-8.7,2.8-8.6,2.7
					c0-0.1-4.5,0.4-8.8-1.8c-4.5-1.9-7.6-6.4-8.4-7.9c-1.5-2.9-2.2-4.5-3.2-7.2c-0.2,2.9-0.2,5,1.4,8.2c0.9,1.7,4.3,6.6,9.3,8.8
					c4.8,2.4,9.9,1.9,9.8,2c-0.1,0.1,5-0.2,9.6-3c4.7-2.7,7.7-7.9,8.4-9.7C363.6,293.1,363.5,290.9,362.9,288.1z"/>
			</g>
		</g>
		<g class="st1">
			<g>
				<path class="st29" d="M402.8,289.3c-0.9,2.8-1.5,4.5-2.9,7.4c-0.7,1.6-3.7,6.1-8,8.3c-4.3,2.3-8.8,2.3-8.8,2.2
					c0-0.1-4.5,0.2-8.7-2.3c-4.4-2.2-7.2-6.8-7.9-8.4c-1.3-3-1.9-4.6-2.8-7.4c-0.4,2.8-0.5,5,0.9,8.3c0.8,1.7,4,6.9,8.8,9.3
					c4.7,2.7,9.8,2.5,9.7,2.5c-0.1,0.1,5,0.1,9.7-2.4c4.9-2.4,8.2-7.4,8.9-9.2C403.2,294.4,403.1,292.2,402.8,289.3z"/>
			</g>
		</g>
	</g>
</g>
<g id="Livello_9" class="st0">
	<g class="st1">
		<path class="st30" d="M311.6,414.8h24.5v49.1v7.5v10.4h-60.3c0,0,23.3-19.1,35.8-26.4V414.8z"/>
		<polygon class="st31" points="324.9,414.8 336.1,414.8 336.1,463.8 336.1,471.3 336.1,481.8 324.9,481.8 		"/>
		<path class="st31" d="M376.4,414.8h-24.5v49.1v7.5v10.4h60.3c0,0-23.3-19.1-35.8-26.4V414.8z"/>
		<polygon class="st30" points="363.1,414.8 351.9,414.8 351.9,463.8 351.9,471.3 351.9,481.8 363.1,481.8 		"/>
	</g>
	<g class="st1">
		<polygon class="st32" points="261.5,138 287,121.1 196.7,37.9 228.2,158.5 		"/>
		<path class="st33" d="M261.5,138l25.5-16.9l-28.7-26.4c-9.7,6.5-18.7,14.6-26.5,24.2c-3.8,4.6-7.2,9.5-10.2,14.4l6.6,25.2
			L261.5,138z"/>
		<path class="st33" d="M254.5,91.1l-4.7-4.3l-32.8,29l1.8,6.9L254.5,91.1z M243.3,80.8l-3.7-3.4l-27.6,19l1.4,5.1L243.3,80.8z
			 M231.9,70.4l-3.8-3.5l-20.6,12.7l1.3,5L231.9,70.4z M219,58.5l-3.7-3.4l-11.4,10.5l1.4,5.5L219,58.5z M210.5,50.6l-3.8-3.4
			l-6.5,4.5l1.4,5.1L210.5,50.6z"/>
	</g>
	<g class="st1">
		<polygon class="st32" points="432.5,138 407,121.1 497.3,37.9 465.8,158.5 		"/>
		<path class="st33" d="M432.5,138L407,121.1l28.7-26.4c9.7,6.5,18.7,14.6,26.5,24.2c3.8,4.6,7.2,9.5,10.2,14.4l-6.6,25.2L432.5,138
			z"/>
		<path class="st33" d="M439.5,91.1l4.6-4.3l32.8,29l-1.8,6.9L439.5,91.1z M450.8,80.8l3.7-3.4l27.6,19l-1.4,5.1L450.8,80.8z
			 M462.1,70.4l3.8-3.5l20.5,12.7l-1.3,5L462.1,70.4z M475,58.5l3.6-3.4l11.4,10.5l-1.4,5.5L475,58.5z M483.5,50.6l3.8-3.4l6.5,4.5
			l-1.3,5.1L483.5,50.6z"/>
	</g>
	<g class="st1">
		<g>
			<path class="st34" d="M187,275c-40.9,231.5,362.9,231.5,321.9,0C461.2,5,234.8,5,187,275L187,275z"/>
			<path class="st35" d="M187,275c-7.1,40.5-0.7,73.9,14.6,100.2c29.7,25.6,67.3,40.8,108.1,40.8C406,416,484,331.3,484,226.9
				c0-19.4-2.7-38-7.6-55.6C396.9,11.2,227.6,45.8,187,275L187,275z"/>
			<path class="st36" d="M348,117.3c35,0,63.3,1.2,63.3,2.7c0,1.4-28.3,2.6-63.3,2.6c-35,0-63.4-1.2-63.4-2.6
				C284.7,118.5,313,117.3,348,117.3L348,117.3z"/>
			<path class="st36" d="M348,130.6c35,0,63.3,1.1,63.3,2.6c0,1.5-28.3,2.6-63.3,2.6c-35,0-63.4-1.1-63.4-2.6
				C284.7,131.7,313,130.6,348,130.6L348,130.6z"/>
		</g>
		<g>
			<path class="st36" d="M227.7,324.5c-2-6.4-8.9-10-15.3-8c-6.5,2.1-10,8.9-8,15.4c2,6.5,8.9,10,15.3,8
				C226.2,337.9,229.8,331,227.7,324.5L227.7,324.5z"/>
			<path class="st36" d="M248.4,329c-1.2-3.9-5.3-6-9.2-4.8c-3.9,1.2-6,5.3-4.7,9.2c1.2,3.9,5.3,6,9.2,4.8
				C247.4,336.9,249.6,332.8,248.4,329L248.4,329z"/>
			<path class="st36" d="M228.5,304.7c-0.8-2.7-3.8-4.2-6.5-3.4c-2.7,0.9-4.2,3.8-3.4,6.5c0.9,2.8,3.8,4.3,6.5,3.4
				C227.9,310.4,229.4,307.5,228.5,304.7L228.5,304.7z"/>
		</g>
		<g>
			<path class="st36" d="M372.6,363.3c-6.5,1.9-10.2,8.8-8.2,15.2c1.9,6.5,8.7,10.2,15.2,8.2c6.5-1.9,10.2-8.8,8.2-15.2
				C385.9,365,379,361.3,372.6,363.3L372.6,363.3z"/>
			<path class="st36" d="M377.3,342.7c-3.9,1.1-6.1,5.3-4.9,9.1c1.1,3.9,5.3,6.1,9.1,5c3.9-1.1,6.1-5.3,5-9.1
				C385.2,343.7,381.1,341.5,377.3,342.7L377.3,342.7z"/>
			<path class="st36" d="M352.8,362.2c-2.8,0.8-4.3,3.7-3.5,6.5c0.8,2.8,3.7,4.3,6.5,3.5c2.8-0.8,4.3-3.8,3.5-6.5
				C358.4,362.9,355.5,361.3,352.8,362.2L352.8,362.2z"/>
		</g>
		<g>
			<path class="st36" d="M250.4,217.1c1-6.7-3.6-12.9-10.3-13.9c-6.7-1-12.9,3.6-13.9,10.3c-1,6.7,3.6,12.9,10.3,13.9
				C243.1,228.4,249.3,223.8,250.4,217.1L250.4,217.1z"/>
			<path class="st36" d="M267,230.1c0.6-4-2.1-7.8-6.1-8.3c-4-0.6-7.8,2.1-8.3,6.1c-0.6,4,2.1,7.8,6.1,8.3
				C262.6,236.9,266.4,234.1,267,230.1L267,230.1z"/>
			<path class="st36" d="M259.8,199.6c0.5-2.8-1.5-5.5-4.3-5.9c-2.9-0.4-5.5,1.5-5.9,4.4c-0.4,2.8,1.5,5.5,4.4,5.9
				C256.7,204.5,259.4,202.5,259.8,199.6L259.8,199.6z"/>
		</g>
		<g>
			<path class="st36" d="M446.8,200.2c-3.4-5.8-1.5-13.3,4.4-16.7c5.8-3.4,13.3-1.4,16.7,4.4c3.4,5.8,1.5,13.3-4.4,16.7
				C457.7,208,450.2,206.1,446.8,200.2L446.8,200.2z"/>
			<path class="st36" d="M436.2,218.5c-2-3.5-0.9-8,2.7-10.1c3.5-2,8-0.8,10,2.7c2,3.5,0.9,8-2.7,10.1
				C442.7,223.1,438.2,221.9,436.2,218.5L436.2,218.5z"/>
			<path class="st36" d="M431.6,187.5c-1.5-2.5-0.6-5.7,1.9-7.1c2.5-1.4,5.7-0.6,7.1,1.9c1.5,2.5,0.6,5.7-1.9,7.1
				C436.2,190.8,433.1,190,431.6,187.5L431.6,187.5z"/>
		</g>
	</g>
	<g class="st1">
		<path class="st37" d="M413.3,146.2c0.3,1.9,0.4,3.9,0.4,5.9c0,28.2-29.7,51.2-66.4,51.2c-36.7,0-66.4-22.9-66.4-51.2
			c0-2,0.2-4,0.4-5.9H413.3z"/>
		<path class="st38" d="M397.7,146.2c0.2,1.5,0.4,3,0.4,4.5c0,21.6-22.7,39.1-50.7,39.1c-28,0-50.7-17.5-50.7-39.1
			c0-1.5,0.1-3,0.3-4.5H397.7z"/>
		<path class="st39" d="M383.6,146.2c0.2,1,0.3,2.1,0.3,3.2c0,15.6-16.4,28.1-36.5,28.1c-20.2,0-36.6-12.6-36.6-28.1
			c0-1.1,0.1-2.2,0.3-3.2H383.6z"/>
		<path class="st37" d="M334.4,146.2c5.3,0,9.6,4.3,9.6,9.6s-4.3,9.6-9.6,9.6c-5.3,0-9.6-4.3-9.6-9.6S329.1,146.2,334.4,146.2
			L334.4,146.2z"/>
	</g>
	<g class="st1">
		<polygon class="st38" points="205.2,299.1 168.9,358.2 146.2,357.6 133.1,386.5 150.4,366.1 140.6,396.3 160.8,372.3 155.4,390.8 
			170.6,375.3 175.1,361.8 214.5,305.2 		"/>
		<polygon class="st40" points="158.2,381.2 155.4,390.8 170.6,375.3 175.1,361.8 214.5,305.2 209.2,301.7 171.1,360.6 163.6,377.4 
					"/>
		<path class="st34" d="M227.4,305.9L227.4,305.9c-2.1,3.6-10.1,2.6-17.8-2c-7.7-4.6-12.2-11.2-10.1-14.7c0.2-0.3,0.4-0.5,0.5-0.7
			c3.3,3.9,8,7.8,13.7,11.3C218.4,302.6,223.2,304.7,227.4,305.9L227.4,305.9z"/>
	</g>
	<g class="st1">
		<polygon class="st40" points="487.6,300.8 503,368.5 524.7,375.1 527.8,406.8 517.9,381.8 517.6,413.6 506.2,384.4 505.2,403.7 
			495.9,384.1 496,369.8 476.8,303.6 		"/>
		<polygon class="st38" points="505.7,393.7 505.2,403.7 495.9,384.1 496,369.8 476.8,303.6 483,302 500.1,370 501.9,388.3 		"/>
		<path class="st35" d="M464.4,300.1L464.4,300.1c0.9,4.1,8.7,5.7,17.5,3.8c8.8-1.9,15.2-6.7,14.3-10.6c-0.1-0.3-0.2-0.6-0.3-0.8
			c-4.3,2.6-10.1,4.9-16.6,6.3C474,299.9,468.9,300.3,464.4,300.1L464.4,300.1z"/>
	</g>
	<g class="st1">
		<path class="st36" d="M343,269.5c68,0,123.2,1.1,123.2,2.5c0,1.4-55.2,2.4-123.2,2.4c-68.1,0-123.3-1.1-123.3-2.4
			C219.8,270.6,274.9,269.5,343,269.5L343,269.5z"/>
		<polygon class="st37" points="227.5,272.5 243.1,322.9 255.8,286.5 280,344.4 310.4,288.2 328.6,322.4 344.6,288.2 367.2,326.8 
			390.3,286 409.1,335.6 434.5,281.6 452.1,300.3 460.3,273.1 		"/>
	</g>
</g>
<g id="Livello_10" class="st0">
	<g class="st1">
		<path class="st41" d="M224.6,106c0,0-2.8-51.2-43.5-58.9c0,0-11.2,25.1-30.2,12.5c-18.9-12.5,7.7-42,21.7-38.5
			c14,3.5,11.8,16.8,11.8,16.8s41.5,7,46.4,63.8L224.6,106z"/>
		<path class="st41" d="M461.8,108.2c0,0,2.8-51.2,43.5-58.9c0,0,11.2,25.1,30.2,12.5c18.9-12.5-7.7-42-21.7-38.5
			c-14,3.5-11.8,16.8-11.8,16.8s-41.5,7-46.4,63.8L461.8,108.2z"/>
	</g>
	<path class="st42" d="M478.4,288.1c0,0,57.4,14.9,52.5,36c-5.3,23-25.6,31.9-22.5,35c3.1,3.1,14.4-0.1,23.6,0.3
		c9.2,0.4,24.4,20,6.9,41.2c-14.5,17.6-47.6,3.1-53.6-13.1c-6.4-17.4,3.2-31.4,12.4-39.5c28.7-25,4.6-26.4-24.8-32.9
		C473.1,315.2,456.2,298.1,478.4,288.1z"/>
	<path class="st42" d="M220.3,319.3c0,0-35.6-9.5-49.5-0.3c-13.9,9.3-24.1,33.9-11.4,44c12.7,10.1,21.7,3.4,26.2,9.1
		c4.3,5.5-7.7,12.8-13.8,10.7c-0.3-0.1-0.5-0.2-0.8-0.3c-6.1-2.6,24.5,12.4,15.1,26c-9.4,13.6-38.5,24.2-52.4,3.7
		c-18.6-27.5-5.7-44.1-0.7-46.8c0,0-10.2-81.4,65.2-90.4C198.2,275.2,224.2,297.9,220.3,319.3z"/>
	<path class="st42" d="M253.4,439.8c0,0-43.2,28.8-14.6,38.6s49.8-27.8,43.2-47.8C275.3,410.6,253.4,439.8,253.4,439.8z"/>
	<path class="st42" d="M310.3,403.7c0,0-20.5,74.3,7.6,77.8c47.8,5.8,22.2-38.2,16-58.2C327.7,403.2,310.3,403.7,310.3,403.7z"/>
	<path class="st42" d="M381,403.7c0,0-15.5,77.3,25.3,74.7c22.2-1.4,28.3-25.9,5.8-31.7C393.1,441.9,381,403.7,381,403.7z"/>
	<g class="st1">
		<path class="st43" d="M181.7,118.7C145.4,168.3,144,227.1,144,227.1c9.9-7.8,19.8-15.5,29.6-23.2
			c-10.5,38.3-20.3,108.3,12.1,136.3c2.7-16.5,5.4-33,8.1-49.5c-4.3,77.9,82.6,201.6,121.2,144c13.2-19.7,43.4-19.7,56.5,0
			c38.6,57.6,125.5-66.1,121.2-144c2.7,16.5,5.4,33,8.1,49.5c32.4-28,22.6-98,12.1-136.3c9.9,7.8,19.8,15.5,29.6,23.2
			c0,0-1.4-58.8-37.7-108.4C418.5,1.1,268,1.1,181.7,118.7L181.7,118.7z"/>
		<path class="st44" d="M181.7,118.7C145.4,168.3,144,227.1,144,227.1c9.9-7.8,19.8-15.5,29.6-23.2
			c-10.5,38.3-20.3,108.3,12.1,136.3c2.7-16.5,5.4-33,8.1-49.5c-1.9,34.7,14.3,78.5,36.2,111.2c6.4,0.6,13,0.9,19.5,0.9
			c31.2,0,61.1-6,88.3-17.7c5.5-2.4,9.6-4.3,9.6-4.3c80.3-38,136-121.3,136-218c0-29.3-5.1-57.3-14.5-83.2
			C381.2,3,257,16,181.7,118.7L181.7,118.7z"/>
	</g>
	<g class="st1">
		<path class="st45" d="M401,131.3c12.1,0,22,9.8,22,21.9c0,12.1-9.8,22-22,22s-22-9.8-22-22C379.1,141.1,388.9,131.3,401,131.3
			L401,131.3z"/>
		<path class="st43" d="M422.8,156.6c0.2,1,0.2,2.2,0.2,3.3c0,12.1-9.8,22-22,22s-22-9.8-22-22c0-1.1,0.1-2.3,0.2-3.3
			c1.6,10.6,10.7,18.6,21.7,18.6C412.1,175.2,421.2,167.1,422.8,156.6L422.8,156.6z"/>
		<path class="st37" d="M395.8,140.2c5,0,9,4.1,9,9.1c0,5-4.1,9.1-9,9.1c-5,0-9.1-4.1-9.1-9.1C386.7,144.2,390.8,140.2,395.8,140.2
			L395.8,140.2z"/>
	</g>
	<g class="st1">
		<path class="st45" d="M287.7,131.6c12.1,0,22,9.8,22,21.9c0,12.1-9.8,22-22,22c-12.1,0-22-9.8-22-22
			C265.7,141.5,275.5,131.6,287.7,131.6L287.7,131.6z"/>
		<path class="st43" d="M309.4,156.9c0.2,1,0.2,2.2,0.2,3.3c0,12.1-9.8,22-22,22c-12.1,0-22-9.8-22-22c0-1.1,0.1-2.3,0.2-3.3
			c1.6,10.6,10.7,18.6,21.7,18.6C298.7,175.5,307.8,167.5,309.4,156.9L309.4,156.9z"/>
		<path class="st37" d="M282.4,140.5c5,0,9.1,4.1,9.1,9.1c0,5-4.1,9.1-9.1,9.1c-5,0-9-4.1-9-9.1
			C273.3,144.6,277.4,140.5,282.4,140.5L282.4,140.5z"/>
	</g>
	<g class="st1">
		<path class="st43" d="M341.4,287c43.2,0,78.2,1,78.2,2.2c0,1.2-35,2.2-78.2,2.2s-78.1-1-78.1-2.2C263.2,288,298.2,287,341.4,287
			L341.4,287z"/>
		<path class="st37" d="M294.8,289.2c0-2.6-10.9-30.9-10.9-30.9l-11.1,30.9H294.8z"/>
		<path class="st46" d="M294.8,289.2c0-2.6-10.9-30.9-10.9-30.9l-0.6,30.9H294.8z"/>
		<path class="st37" d="M412.2,289.2c0-2.6-10.9-30.9-10.9-30.9l-11,30.9H412.2z"/>
		<path class="st46" d="M412.2,289.2c0-2.6-10.9-30.9-10.9-30.9l-0.6,30.9H412.2z"/>
	</g>
</g>
<g id="Livello_11" class="st0">
	<path class="st47" d="M477.1,288c0,0,70.3,12.6,104.8,61.1c34.4,48.5-1.4,84.4-14.9,76.9c-13.5-7.6-36.5-28-2.4-54.3
		c0,0-15.6-47.9-84.7-51.3C479.8,320.4,452,299.1,477.1,288z"/>
	<path class="st47" d="M158.8,367.8c-0.3,2-30.2-23.3-40.7-8.1c-10.4,15.1-9.4,36.5,16.4,43.5c25.8,7,49.5,0.1,57.3-18.4
		c7.8-18.6-8.5-27.3-13.3-43c-4.9-15.7,33.8-26.3,38.9-27.8c5.1-1.4,7.5-20.5-1.9-23.6c-9.4-3.2-71.6,17.6-64,37.8
		C159.1,348.1,159.4,363.2,158.8,367.8z"/>
	<g class="st1">
		<path class="st48" d="M313.3,408.3c0,0,26.2,1.9,29.6,5.5c3.4,3.7-3.6,49.6-4.1,60.1c-0.5,10.5,0.9,30.5-7.6,32.4
			c-8.5,1.9-61,0.6-76.5-1.4c-15.5-1.9-13.3-22.9,25.9-16.9c39.2,6,41.8,0.9,41.8,0.9S303.2,418.3,313.3,408.3z"/>
		<path class="st48" d="M370.6,406.1c0,0-24.7,7.7-27.1,12.1c-2.4,4.3,14.9,47.4,17.8,57.5c2.9,10.1,6.2,29.9,14.7,29.8
			c8.6,0,58.6-13.3,73-18.6c14.4-5.4,7.4-25.3-28.8-10.6c-36.2,14.7-39.9,10.3-39.9,10.3S382.5,413.6,370.6,406.1z"/>
	</g>
	<g class="st1">
		<path class="st49" d="M487.2,86.6c1.8,13.8-5.5,26.2-16.4,27.7c-10.9,1.5-21.3-8.6-23.1-22.4c-1.9-13.8,5.5-26.2,16.4-27.7
			C475,62.7,485.3,72.8,487.2,86.6z"/>
		<g>
			<path class="st50" d="M493-3.6c-2.6,2.2,1.2,53.4-12.2,60.2c-13.4,6.8-34.2,13.1-31.7,30.7c2.4,17.6,20.8,35.2,51.3,1.1
				C530.9,54.3,499.7-9.3,493-3.6z"/>
			<g>
				<path class="st51" d="M510.8,28.2C506.1,8.4,496.4-6.5,493-3.6c-1.5,1.3-0.9,18.3-2.6,34C494.8,32.4,502,33.8,510.8,28.2z"/>
				<path class="st51" d="M487.4,46.4c-1.5,4.9-3.7,8.6-6.6,10.1c-1.7,0.9-3.6,1.7-5.4,2.6c11.4,5.5,26.8,6.5,36.5,6.4
					c1.4-6.3,1.9-12.8,1.6-19.2C504.1,49.2,494.1,48,487.4,46.4z"/>
				<path class="st51" d="M460.6,66.8c-4.9,3.2-9,7-10.7,11.9c10.9,8,28.1,14.7,41,18.9c3-2.6,6.2-5.6,9.5-9.3
					c2.3-2.5,4.1-5.2,5.8-8C483.4,78.2,467.8,70.9,460.6,66.8z"/>
			</g>
			<g class="st52">
				<path class="st50" d="M492.2,78.3c-6.2,15.2-21.4,28.3-34.3,14.5c-13-13.8,7.5-28.8,7.5-28.8c-9.6,5.1-17.9,11.8-16.3,23.2
					c2.4,17.6,20.8,35.2,51.3,1.1c11.3-12.6,14.1-29.2,12.9-44.9C510.1,71.6,498.4,63,492.2,78.3z"/>
			</g>
		</g>
	</g>
	<g class="st1">
		<path class="st49" d="M204.1,81.9c-1.9,13.8,5.5,26.2,16.4,27.7c10.9,1.5,21.3-8.6,23.1-22.4c1.8-13.8-5.5-26.2-16.4-27.7
			C216.3,58.1,206,68.1,204.1,81.9z"/>
		<g>
			<path class="st50" d="M198.3-8.3c2.6,2.2-1.2,53.4,12.2,60.2c13.4,6.8,34.2,13.1,31.8,30.7c-2.4,17.6-20.8,35.2-51.3,1.1
				C160.5,49.6,191.6-14,198.3-8.3z"/>
			<g>
				<path class="st51" d="M180.5,23.5c4.7-19.8,14.4-34.7,17.8-31.8c1.5,1.3,0.9,18.3,2.6,34C196.6,27.7,189.4,29.1,180.5,23.5z"/>
				<path class="st51" d="M203.9,41.8c1.5,4.9,3.7,8.6,6.7,10.1c1.7,0.9,3.6,1.7,5.5,2.6c-11.4,5.5-26.8,6.5-36.5,6.4
					c-1.4-6.3-1.9-12.8-1.6-19.2C187.2,44.5,197.2,43.3,203.9,41.8z"/>
				<path class="st51" d="M230.8,62.1c4.9,3.2,8.9,7,10.7,11.9c-10.9,8-28.1,14.7-41,18.9c-3-2.6-6.2-5.6-9.5-9.3
					c-2.3-2.5-4.2-5.2-5.8-8C207.9,73.5,223.5,66.3,230.8,62.1z"/>
			</g>
			<g class="st52">
				<path class="st50" d="M199.2,73.6c6.2,15.2,21.4,28.3,34.3,14.5c13-13.8-7.5-28.8-7.5-28.8c9.6,5.1,17.9,11.8,16.3,23.2
					c-2.4,17.6-20.8,35.2-51.3,1.1c-11.3-12.6-14.1-29.2-12.9-44.9C181.2,67,192.9,58.3,199.2,73.6z"/>
			</g>
		</g>
	</g>
	<g class="st1">
		<path class="st53" d="M345.7,32.5c108.9,0,197.1,85.4,197.1,190.8c0,44-15.3,84.5-41.2,116.8c19.9,6.2,34.3,24.4,34.3,45.7
			c0,26.6-22.3,48.1-49.7,48.1c-14.1,0-26.8-5.7-35.9-14.8c-0.1,19.1-16.1,34.7-35.9,34.7c-14,0-26.1-7.8-32.1-19.1
			c-4.8,1.9-9.9,2.9-15.4,2.9c-7.1,0-13.7-1.7-19.5-4.7c-4.5,14.9-18.8,25.8-35.7,25.8c-12.4,0-23.4-5.9-30.1-14.9
			c-9.4,9.9-22.9,16.1-37.9,16.1c-28.4,0-51.4-22.3-51.4-49.7c0-18,9.9-33.8,24.7-42.6c-41.9-35-68.4-86.7-68.4-144.5
			C148.7,117.9,236.9,32.5,345.7,32.5L345.7,32.5z"/>
		<path class="st54" d="M345.7,32.5c40.9,0,78.9,12,110.4,32.7c19.3,34.8,30.3,74.5,30.3,116.7c0,136.3-114.2,246.8-255,246.8
			c-12.4,0-24.5-0.8-36.3-2.5c-1.8-5.1-2.7-10.4-2.7-16c0-18,9.9-33.8,24.7-42.6c-41.9-35-68.4-86.7-68.4-144.5
			C148.7,117.9,236.9,32.5,345.7,32.5L345.7,32.5z"/>
	</g>
	<g class="st1">
		<path class="st55" d="M239.7,248.9c-0.4,62.4,45.8,113.4,103.2,113.8c57.4,0.4,104.3-49.9,104.7-112.4L239.7,248.9z"/>
		<path class="st6" d="M414.2,250l-70.6-0.5l-70.6-0.5c0,0-2.1,22.2,0.8,31l14.6-19.3l55.1,2.3l55.1-1.6L413,281
			C416,272.3,414.2,250,414.2,250z"/>
		<path class="st56" d="M286.9,344.3c16.1,11.4,35.3,18.2,56,18.3c20.7,0.1,39.9-6.4,56.2-17.6c-6.8-24.6-29-42.9-55.8-43.1
			C316.5,301.8,294,319.8,286.9,344.3z"/>
	</g>
	<g class="st1">
		<g>
			<path class="st6" d="M450.9,157.9c-0.2,27.8-22.8,50.2-50.6,50c-27.8-0.2-50.2-22.9-50-50.7c0.2-27.8,22.9-50.2,50.7-50
				C428.8,107.4,451.1,130.1,450.9,157.9z"/>
			<g>
				<path class="st57" d="M420.4,166.8c-0.1,16.8-13.8,30.3-30.7,30.2c-16.8-0.1-30.3-13.8-30.2-30.7c0.1-16.8,13.8-30.3,30.6-30.2
					C407,136.2,420.5,149.9,420.4,166.8z"/>
				<path class="st6" d="M395.7,157.4c-0.1,6.8-5.6,12.2-12.4,12.2c-6.8,0-12.2-5.6-12.2-12.3c0-6.8,5.6-12.2,12.3-12.2
					C390.3,145,395.8,150.6,395.7,157.4z"/>
				<path class="st6" d="M406.4,178.1c0,3.4-2.8,6.1-6.1,6c-3.4,0-6.1-2.8-6.1-6.1c0-3.4,2.8-6.1,6.1-6
					C403.7,172,406.4,174.7,406.4,178.1z"/>
			</g>
		</g>
		<g>
			<path class="st6" d="M235,166.4c-0.1,22.4,17.9,40.6,40.2,40.8c22.4,0.1,40.6-17.9,40.8-40.2c0.2-22.4-17.9-40.6-40.2-40.8
				C253.4,126,235.1,144,235,166.4z"/>
			<g>
				<path class="st57" d="M259.5,173.9c-0.1,13.5,10.8,24.6,24.3,24.7c13.5,0.1,24.6-10.8,24.7-24.3c0.1-13.5-10.8-24.6-24.3-24.7
					C270.6,149.4,259.5,160.3,259.5,173.9z"/>
				<path class="st6" d="M279.4,166.6c0,5.5,4.4,9.9,9.8,9.9c5.5,0,9.9-4.4,9.9-9.8c0-5.4-4.3-9.9-9.8-9.9
					C283.9,156.7,279.5,161.1,279.4,166.6z"/>
				<path class="st6" d="M270.6,183.2c0,2.7,2.2,4.9,4.9,4.9c2.7,0,4.9-2.2,4.9-4.9s-2.2-4.9-4.9-4.9
					C272.8,178.3,270.6,180.4,270.6,183.2z"/>
			</g>
		</g>
	</g>
</g>
<g id="Livello_2" class="st0">
	<g class="st1">
		<rect x="218.4" y="108.8" class="st58" width="252" height="102"/>
		<g>
			<rect x="138.2" y="65.2" class="st58" width="412.8" height="349.8"/>
			<rect x="186.6" y="6.8" class="st58" width="102" height="102"/>
			<rect x="8.4" y="187.4" class="st58" width="210.4" height="148.8"/>
			<rect x="470.1" y="187.4" class="st58" width="210.4" height="148.8"/>
			<rect x="209" y="390.2" class="st58" width="270.8" height="91.6"/>
			<rect x="400.9" y="6.8" class="st58" width="102" height="102"/>
			<rect x="293.6" y="6.8" class="st58" width="102" height="102"/>
			<circle class="st59" cx="479.8" cy="303.1" r="9.7"/>
			<circle class="st59" cx="209" cy="303.1" r="9.7"/>
			<circle class="st59" cx="344.5" cy="159.8" r="9.7"/>
			<circle class="st59" cx="344.5" cy="303.1" r="9.7"/>
			<circle class="st59" cx="227.8" cy="99.1" r="9.7"/>
			<circle class="st59" cx="460.7" cy="99.1" r="9.7"/>
			<circle class="st59" cx="344.5" cy="399.9" r="9.7"/>
		</g>
		<rect x="218.4" y="210.8" class="st58" width="252" height="102"/>
	</g>
</g>
</svg>
