<?xml version="1.0" encoding="UTF-8"?>
<svg xmlns="http://www.w3.org/2000/svg" version="1.0" width="324" height="183">
<path d="M 105,114 C 105,139 91,171 59,170 C 29,168 16,139 16,112 C 16,85 37,67 66,67 C 95,67 105,89 105,114 z M 303,119 C 303,136 289,170 263,170 C 236,170 223,139 223,112 C 223,85 245,72 266,72 C 288,72 303,101 303,119 z" fill="white"/>
<path d="M 227,95 C 265,50 317,88 297,145 C 331,92 264,40 226,93 L 227,95 z M 255,90 C 255,92 263,96 263,107 C 263,117 255,124 249,124 C 243,124 240,116 240,107 C 240,96 244,92 244,90 C 244,88 227,92 227,129 C 227,151 236,170 251,170 C 267,170 284,151 284,129 C 284,90 255,88 255,90 z M 27,125 C 27,148 39,166 60,166 C 81,166 92,148 92,125 C 92,86 62,82 62,87 C 62,91 70,90 70,102 C 70,108 68,117 58,117 C 47,117 46,107 46,102 C 46,93 52,91 52,87 C 52,84 27,91 27,125 z M 22,139 C 30,139 -1,104 37,77 C 76,50 103,94 105,91 C 108,89 96,59 68,65 C 68,65 50,60 26,81 C 3,101 14,139 22,139 z M 12,36 C 16,41 26,15 70,19 C 77,24 100,39 103,37 C 107,35 94,18 74,15 C 31,8 8,32 12,36 z M 236,40 C 240,47 260,23 281,25 C 307,28 308,40 312,35 C 316,31 300,18 278,19 C 258,20 233,34 236,40 z" fill="black"/>
</svg>
